<svg width="375" height="714" viewBox="0 0 375 714" fill="none" xmlns="http://www.w3.org/2000/svg">
<g clip-path="url(#clip0_12_469)">
<g opacity="0.4">
<path fill-rule="evenodd" clip-rule="evenodd" d="M100.227 654.862C103.292 647.431 105.872 639.626 111.214 633.448C111.531 633.079 111.49 632.523 111.118 632.203C110.745 631.886 110.186 631.924 109.866 632.292C104.399 638.615 101.719 646.582 98.5842 654.186C98.3965 654.634 98.6161 655.153 99.07 655.338C99.5227 655.527 100.04 655.311 100.227 654.862Z" fill="white"/>
<path fill-rule="evenodd" clip-rule="evenodd" d="M88.9844 651.316C87.7128 648.145 87.0677 644.968 87.4471 641.574C87.5016 641.089 87.1499 640.652 86.6639 640.594C86.1765 640.539 85.7371 640.887 85.6838 641.368C85.2708 645.059 85.9551 648.511 87.3364 651.959C87.5174 652.413 88.0336 652.638 88.4893 652.458C88.9435 652.282 89.1666 651.768 88.9844 651.316Z" fill="white"/>
<path fill-rule="evenodd" clip-rule="evenodd" d="M62.7958 648.719C59.5012 646.223 57.4128 642.998 56.5621 638.958C56.4615 638.481 55.991 638.172 55.5112 638.271C55.0326 638.366 54.7247 638.833 54.8252 639.309C55.7678 643.781 58.0769 647.355 61.7247 650.119C62.1146 650.416 62.6729 650.34 62.9677 649.955C63.2641 649.567 63.187 649.013 62.7958 648.719Z" fill="white"/>
<path fill-rule="evenodd" clip-rule="evenodd" d="M43.5712 683.732C44.0833 684.661 44.6794 685.547 45.3611 686.367C45.6645 686.733 46.3398 687.43 47.0219 687.76C47.7475 688.114 48.4783 688.105 49.0621 687.582C49.8369 686.887 50.0561 686.179 49.9931 685.543C49.9331 684.931 49.5821 684.336 49.0021 683.823C47.8933 682.842 45.887 682.154 44.6607 681.973C44.2138 681.021 43.8581 680.027 43.594 679.009C41.6269 671.422 46.5498 663.294 55.4912 659.019C58.6214 657.524 63.7327 658.189 69.0047 659.539C77.2137 661.64 85.7877 665.534 88.3307 666.594C88.9592 666.855 89.3588 666.94 89.4467 666.936C89.8762 666.924 90.0773 666.688 90.187 666.511C90.3429 666.254 90.3745 666.014 90.3498 665.8C90.3147 665.511 90.1663 665.228 89.8557 665.003C89.6836 664.88 89.4227 664.765 89.1366 664.662C88.9374 664.593 88.7073 664.55 88.5815 664.457C87.7772 663.853 87.0143 663.206 86.2427 662.562C83.6457 660.406 81.3503 658.025 79.1137 655.502C72.0067 647.484 64.339 639.425 60.4778 629.273C60.3045 628.818 59.7924 628.583 59.3339 628.754C58.8766 628.922 58.6458 629.429 58.8182 629.888C62.755 640.243 70.5374 648.486 77.7849 656.663C79.6876 658.809 81.6327 660.855 83.7607 662.752C79.3939 660.965 73.2848 658.659 67.5847 657.386C62.5154 656.254 57.7572 655.977 54.7143 657.43C44.9192 662.113 39.7199 671.131 41.8759 679.439C42.1069 680.328 42.4003 681.203 42.7578 682.05C35.237 683.074 29.943 689.418 30.4347 697.011C30.4656 697.498 30.8883 697.868 31.3766 697.841C31.8661 697.81 32.2368 697.394 32.206 696.907C31.763 690.064 36.6849 684.389 43.5712 683.732ZM45.8337 684.054C46.1108 684.467 46.4094 684.864 46.7276 685.251C46.8991 685.456 47.2378 685.828 47.6143 686.074C47.7029 686.131 47.8523 686.192 47.9219 686.219C48.1219 686.035 48.2445 685.879 48.2268 685.706C48.206 685.49 48.0291 685.317 47.8261 685.137C47.317 684.685 46.556 684.309 45.8337 684.054Z" fill="white"/>
<path fill-rule="evenodd" clip-rule="evenodd" d="M291.798 627.658C297.614 633.206 303.955 638.438 307.779 645.656C308.008 646.085 308.541 646.247 308.974 646.017C309.404 645.784 309.571 645.249 309.345 644.818C305.431 637.432 298.976 632.048 293.024 626.372C292.674 626.034 292.111 626.051 291.774 626.407C291.433 626.761 291.448 627.321 291.798 627.658Z" fill="white"/>
<path fill-rule="evenodd" clip-rule="evenodd" d="M299.176 618.463C302.593 618.426 305.787 618.976 308.813 620.559C309.245 620.785 309.78 620.616 310.01 620.184C310.238 619.749 310.073 619.214 309.643 618.99C306.353 617.268 302.888 616.655 299.174 616.694C298.685 616.698 298.288 617.098 298.291 617.588C298.291 618.075 298.689 618.469 299.176 618.463Z" fill="white"/>
<path fill-rule="evenodd" clip-rule="evenodd" d="M311.082 594.994C314.602 592.827 318.365 592.048 322.439 592.719C322.919 592.798 323.378 592.471 323.46 591.988C323.544 591.508 323.221 591.052 322.74 590.973C318.231 590.231 314.063 591.089 310.165 593.488C309.747 593.744 309.616 594.292 309.868 594.706C310.122 595.123 310.667 595.252 311.082 594.994Z" fill="white"/>
<path fill-rule="evenodd" clip-rule="evenodd" d="M285.41 564.392C284.359 564.533 283.317 564.768 282.306 565.106C281.855 565.256 280.961 565.633 280.406 566.15C279.813 566.698 279.557 567.382 279.833 568.116C280.2 569.09 280.781 569.551 281.396 569.722C281.988 569.888 282.67 569.776 283.359 569.422C284.675 568.743 286.042 567.122 286.655 566.045C287.705 565.973 288.76 566.002 289.805 566.124C297.588 567.039 303.382 574.572 304.127 584.454C304.387 587.914 301.916 592.437 298.748 596.862C293.816 603.752 287.081 610.333 285.172 612.32C284.701 612.811 284.477 613.153 284.449 613.236C284.305 613.641 284.452 613.914 284.577 614.08C284.76 614.319 284.973 614.435 285.18 614.489C285.463 614.561 285.781 614.526 286.103 614.318C286.279 614.202 286.481 614 286.681 613.771C286.817 613.61 286.941 613.411 287.073 613.328C287.927 612.797 288.807 612.32 289.687 611.834C292.637 610.195 295.687 608.917 298.849 607.747C308.897 604.026 319.186 599.799 330.048 599.877C330.535 599.88 330.939 599.488 330.945 598.998C330.955 598.511 330.565 598.113 330.075 598.107C318.998 598.026 308.495 602.294 298.248 606.087C295.559 607.083 292.947 608.156 290.409 609.452C293.656 606.029 298.018 601.17 301.269 596.318C304.161 592.003 306.143 587.668 305.89 584.306C305.073 573.48 298.551 565.367 290.026 564.367C289.114 564.26 288.192 564.217 287.273 564.243C289.043 556.862 285.047 549.63 277.791 547.338C277.326 547.19 276.828 547.45 276.677 547.915C276.528 548.383 276.782 548.879 277.247 549.027C283.785 551.092 287.293 557.736 285.41 564.392ZM284.29 566.384C283.806 566.493 283.327 566.628 282.852 566.784C282.598 566.87 282.129 567.051 281.763 567.312C281.678 567.374 281.567 567.491 281.516 567.547C281.615 567.8 281.717 567.971 281.884 568.017C282.093 568.075 282.319 567.973 282.56 567.849C283.166 567.539 283.791 566.965 284.29 566.384Z" fill="white"/>
<path fill-rule="evenodd" clip-rule="evenodd" d="M84.6053 330.005C76.1594 343.814 59.2879 349.429 43.6179 341.654C43.0962 341.395 42.4347 341.557 42.1403 342.01C41.8459 342.471 42.0299 343.054 42.5516 343.313C59.3477 351.654 77.4622 345.707 86.5153 330.911C86.7987 330.45 86.6009 329.867 86.0737 329.616C85.5465 329.374 84.8887 329.544 84.6053 330.005Z" fill="white"/>
<path d="M56.8049 335.732C58.5496 335.732 59.9639 334.488 59.9639 332.954C59.9639 331.42 58.5496 330.176 56.8049 330.176C55.0603 330.176 53.646 331.42 53.646 332.954C53.646 334.488 55.0603 335.732 56.8049 335.732Z" fill="white"/>
<path d="M69.8819 332.777C71.5924 332.777 72.9791 331.558 72.9791 330.053C72.9791 328.549 71.5924 327.33 69.8819 327.33C68.1713 327.33 66.7847 328.549 66.7847 330.053C66.7847 331.558 68.1713 332.777 69.8819 332.777Z" fill="white"/>
</g>
</g>
<defs>
<clipPath id="clip0_12_469">
<rect width="375" height="714" fill="white"/>
</clipPath>
</defs>
</svg>
