<svg width="375" height="812" viewBox="0 0 375 812" fill="none" xmlns="http://www.w3.org/2000/svg">
<g opacity="0.7">
<path fill-rule="evenodd" clip-rule="evenodd" d="M124.902 132.232C110.451 159.105 81.5815 170.03 54.7684 154.901C53.8757 154.398 52.7438 154.712 52.24 155.594C51.7363 156.491 52.0512 157.625 52.9438 158.129C81.6838 174.359 112.68 162.789 128.171 133.995C128.656 133.098 128.317 131.964 127.415 131.476C126.513 131.004 125.387 131.334 124.902 132.232Z" fill="white"/>
<path d="M77.3325 143.376C80.3178 143.376 82.7379 140.956 82.7379 137.971C82.7379 134.985 80.3178 132.565 77.3325 132.565C74.3473 132.565 71.9272 134.985 71.9272 137.971C71.9272 140.956 74.3473 143.376 77.3325 143.376Z" fill="white"/>
<path d="M99.7093 137.626C102.636 137.626 105.009 135.253 105.009 132.327C105.009 129.4 102.636 127.027 99.7093 127.027C96.7824 127.027 94.4097 129.4 94.4097 132.327C94.4097 135.253 96.7824 137.626 99.7093 137.626Z" fill="white"/>
</g>
</svg>
