<svg width="375" height="812" viewBox="0 0 375 812" fill="none" xmlns="http://www.w3.org/2000/svg">
<g opacity="0.8">
<path fill-rule="evenodd" clip-rule="evenodd" d="M76.7986 197.658C82.6149 203.206 88.9558 208.438 92.7792 215.656C93.0083 216.085 93.5412 216.247 93.9744 216.017C94.4049 215.784 94.5718 215.249 94.3452 214.818C90.4318 207.432 83.9766 202.048 78.0245 196.372C77.6742 196.034 77.1115 196.051 76.774 196.407C76.4339 196.761 76.4483 197.321 76.7986 197.658Z" fill="white"/>
<path fill-rule="evenodd" clip-rule="evenodd" d="M84.1761 188.463C87.593 188.426 90.7874 188.976 93.8135 190.559C94.2456 190.785 94.7803 190.616 95.0109 190.184C95.2388 189.749 95.0734 189.214 94.644 188.99C91.3536 187.268 87.8883 186.655 84.1742 186.694C83.6851 186.698 83.2886 187.098 83.291 187.588C83.291 188.075 83.6896 188.469 84.1761 188.463Z" fill="white"/>
<path fill-rule="evenodd" clip-rule="evenodd" d="M96.0828 164.994C99.6027 162.827 103.365 162.048 107.439 162.719C107.92 162.798 108.378 162.471 108.46 161.988C108.545 161.508 108.221 161.052 107.741 160.973C103.231 160.231 99.0633 161.089 95.1659 163.488C94.7479 163.744 94.6166 164.292 94.8685 164.706C95.1229 165.123 95.6674 165.252 96.0828 164.994Z" fill="white"/>
<path fill-rule="evenodd" clip-rule="evenodd" d="M70.4106 134.392C69.3593 134.533 68.3179 134.768 67.3063 135.106C66.8556 135.256 65.9611 135.633 65.4065 136.15C64.8134 136.698 64.5578 137.382 64.8338 138.116C65.2008 139.09 65.7816 139.551 66.3968 139.722C66.9888 139.888 67.6707 139.776 68.3594 139.422C69.6752 138.743 71.0429 137.122 71.6554 136.045C72.7055 135.973 73.7602 136.002 74.8053 136.124C82.5889 137.039 88.382 144.572 89.1277 154.454C89.388 157.914 86.9163 162.437 83.7484 166.862C78.8166 173.752 72.0813 180.333 70.1721 182.32C69.7017 182.811 69.4773 183.153 69.4491 183.236C69.305 183.641 69.4522 183.914 69.5771 184.08C69.7603 184.319 69.9732 184.435 70.1809 184.489C70.463 184.561 70.781 184.526 71.1032 184.318C71.2799 184.202 71.4819 184 71.681 183.771C71.8175 183.61 71.941 183.411 72.0738 183.328C72.9275 182.797 73.8077 182.32 74.6872 181.834C77.6377 180.195 80.6876 178.917 83.8499 177.747C93.8974 174.026 104.187 169.799 115.048 169.877C115.535 169.88 115.939 169.488 115.946 168.998C115.955 168.511 115.566 168.113 115.076 168.107C103.998 168.026 93.496 172.294 83.2489 176.087C80.5592 177.083 77.948 178.156 75.4092 179.452C78.6566 176.029 83.0185 171.17 86.2697 166.318C89.1614 162.003 91.1431 157.668 90.8903 154.306C90.0736 143.48 83.5511 135.367 75.0262 134.367C74.1141 134.26 73.1922 134.217 72.2734 134.243C74.0431 126.862 70.0475 119.63 62.7919 117.338C62.3264 117.19 61.8285 117.45 61.6773 117.915C61.5287 118.383 61.7822 118.879 62.2476 119.027C68.7858 121.092 72.2932 127.736 70.4106 134.392ZM69.291 136.384C68.8064 136.493 68.3275 136.628 67.8521 136.784C67.5984 136.87 67.1293 137.051 66.7631 137.312C66.6782 137.374 66.5671 137.491 66.5169 137.547C66.6156 137.8 66.7172 137.971 66.8847 138.017C67.0931 138.075 67.3191 137.973 67.5603 137.849C68.1662 137.539 68.7917 136.965 69.291 136.384Z" fill="white"/>
</g>
<g opacity="0.7">
<path fill-rule="evenodd" clip-rule="evenodd" d="M346.605 127.161C338.159 142.866 321.288 149.251 305.618 140.41C305.096 140.115 304.435 140.3 304.14 140.815C303.846 141.339 304.03 142.002 304.552 142.296C321.348 151.782 339.462 145.019 348.515 128.192C348.799 127.667 348.601 127.005 348.074 126.72C347.547 126.444 346.889 126.637 346.605 127.161Z" fill="white"/>
<path d="M318.805 133.674C320.55 133.674 321.964 132.26 321.964 130.515C321.964 128.771 320.55 127.356 318.805 127.356C317.06 127.356 315.646 128.771 315.646 130.515C315.646 132.26 317.06 133.674 318.805 133.674Z" fill="white"/>
<path d="M331.882 130.314C333.592 130.314 334.979 128.927 334.979 127.217C334.979 125.506 333.592 124.12 331.882 124.12C330.171 124.12 328.785 125.506 328.785 127.217C328.785 128.927 330.171 130.314 331.882 130.314Z" fill="white"/>
</g>
</svg>
